<svg width="510" height="400" viewBox="0 0 510 400" fill="none" xmlns="http://www.w3.org/2000/svg">
<g clip-path="url(#clip0_110:386)">
<path d="M426.11 84.583C426.154 84.6358 425.621 85.249 424.724 86.1967C423.826 87.1454 422.565 88.4284 421.151 89.8217C419.737 91.2159 418.437 92.4576 417.479 93.3393C416.521 94.2201 415.903 94.742 415.855 94.693C415.806 94.644 416.337 94.0345 417.234 93.0868C418.132 92.1382 419.397 90.8523 420.815 89.4543C422.233 88.0563 423.535 86.8119 424.494 85.9311C425.452 85.0484 426.067 84.5303 426.11 84.583Z" fill="#DADBD8"/>
<path d="M425.957 25.8609C425.905 25.9052 425.291 25.372 424.344 24.4733C423.397 23.5745 422.115 22.3122 420.723 20.8973C419.329 19.4823 418.088 18.1823 417.208 17.2233C416.327 16.2643 415.806 15.6454 415.855 15.5973C415.904 15.5484 416.513 16.0797 417.46 16.9774C418.408 17.8762 419.693 19.1422 421.089 20.561C422.487 21.9797 423.729 23.2835 424.611 24.2425C425.492 25.2015 426.009 25.8166 425.957 25.8609Z" fill="#DADBD8"/>
<path d="M426.11 192.817C426.154 192.87 425.621 193.483 424.724 194.431C423.826 195.379 422.565 196.661 421.151 198.056C419.737 199.45 418.437 200.691 417.479 201.573C416.521 202.455 415.903 202.975 415.855 202.927C415.806 202.878 416.337 202.268 417.234 201.319C418.132 200.372 419.397 199.085 420.815 197.688C422.233 196.29 423.535 195.046 424.494 194.165C425.452 193.282 426.067 192.764 426.11 192.817Z" fill="#DADBD8"/>
<path d="M425.957 134.095C425.905 134.139 425.291 133.605 424.344 132.706C423.397 131.809 422.115 130.546 420.723 129.131C419.329 127.715 418.088 126.415 417.208 125.456C416.327 124.497 415.806 123.879 415.855 123.831C415.904 123.782 416.513 124.313 417.46 125.211C418.408 126.11 419.693 127.375 421.089 128.795C422.487 130.214 423.729 131.517 424.611 132.476C425.492 133.435 426.009 134.05 425.957 134.095Z" fill="#DADBD8"/>
<path d="M315.639 70.2602C314.79 96.6977 292.637 117.44 266.159 116.591C263.289 116.497 260.486 116.156 257.769 115.586C235.43 110.892 218.994 90.7515 219.752 67.1788C220.599 40.7414 242.751 19.9995 269.231 20.8511C295.709 21.7009 316.487 43.8228 315.639 70.2602Z" fill="#E7E8E5"/>
<path d="M305.535 70.4317C304.887 90.5782 288.006 106.386 267.826 105.737C247.649 105.089 231.815 88.2297 232.462 68.0841C233.108 47.9367 249.99 32.1293 270.167 32.7784C290.346 33.4274 306.18 50.2843 305.535 70.4317Z" fill="#E7E8E5"/>
<path d="M304.231 69.8938C304.218 69.8938 304.202 69.6922 304.181 69.3012C304.164 68.8736 304.141 68.298 304.111 67.5651C304.098 67.1807 304.085 66.7549 304.069 66.2877C304.031 65.8195 303.946 65.3098 303.879 64.7578C303.736 63.6518 303.607 62.3716 303.226 60.9726C302.664 58.138 301.444 54.7721 299.467 51.1877C297.475 47.6173 294.563 43.8633 290.544 40.6321C286.538 37.4301 281.447 34.6549 275.511 33.4133C269.617 32.2093 262.921 32.1782 256.471 34.3901C254.833 34.8574 253.282 35.6063 251.69 36.3082C250.913 36.6953 250.166 37.156 249.396 37.578C248.613 37.9831 247.888 38.4909 247.166 39.009C245.664 39.9699 244.336 41.187 242.952 42.3579C241.692 43.6627 240.37 44.9363 239.272 46.4285C237.02 49.3422 235.035 52.6007 233.778 56.2125C232.48 59.8008 231.721 63.633 231.542 67.5528C231.468 71.4764 231.979 75.351 233.043 79.0174C234.066 82.7037 235.839 86.0828 237.899 89.1369C238.899 90.6978 240.137 92.0534 241.31 93.4373C242.618 94.694 243.864 95.9949 245.301 97.05C246.648 98.2172 248.188 99.0933 249.646 100.036C251.187 100.839 252.689 101.687 254.293 102.259C260.59 104.88 267.274 105.279 273.234 104.455C279.237 103.597 284.495 101.154 288.698 98.2153C292.915 95.2479 296.063 91.6898 298.28 88.2542C300.481 84.8035 301.914 81.5233 302.657 78.732C303.126 77.3594 303.338 76.0905 303.55 74.9968C303.653 74.4495 303.772 73.9464 303.839 73.482C303.884 73.0176 303.925 72.5937 303.963 72.2103C304.039 71.4802 304.098 70.9084 304.144 70.4826C304.189 70.0935 304.218 69.8938 304.231 69.8938C304.244 69.8947 304.241 70.0954 304.222 70.4863C304.196 70.9149 304.16 71.4906 304.116 72.2253C304.089 72.6106 304.06 73.0383 304.029 73.5074C303.972 73.9756 303.866 74.4834 303.775 75.0364C303.584 76.1414 303.394 77.4235 302.944 78.814C302.238 81.641 300.833 84.973 298.64 88.4859C296.432 91.9846 293.272 95.6171 289.013 98.6571C284.767 101.669 279.435 104.182 273.331 105.085C267.269 105.95 260.461 105.569 254.032 102.915C252.393 102.336 250.861 101.478 249.286 100.661C247.797 99.7047 246.226 98.8116 244.849 97.6256C243.38 96.5517 242.105 95.2281 240.77 93.946C239.568 92.5376 238.304 91.1538 237.28 89.5636C235.173 86.4501 233.361 82.9995 232.312 79.2351C231.222 75.4923 230.699 71.5339 230.776 67.5283C230.956 63.5265 231.734 59.6114 233.062 55.9478C234.351 52.2607 236.379 48.9343 238.682 45.9631C239.805 44.4417 241.156 43.1427 242.444 41.8153C243.858 40.6208 245.217 39.383 246.75 38.4061C247.489 37.8785 248.229 37.3632 249.028 36.9515C249.815 36.522 250.578 36.0538 251.373 35.6619C252.996 34.9488 254.582 34.1904 256.253 33.7175C262.837 31.4821 269.655 31.5376 275.649 32.7915C281.683 34.083 286.842 36.9337 290.886 40.211C294.942 43.5176 297.862 47.347 299.843 50.9785C301.806 54.6261 302.994 58.042 303.518 60.9086C303.878 62.3254 303.986 63.617 304.106 64.7323C304.161 65.291 304.235 65.8034 304.26 66.2754C304.262 66.7445 304.264 67.1732 304.266 67.5604C304.263 68.2961 304.261 68.8736 304.259 69.3022C304.254 69.6941 304.244 69.8947 304.231 69.8938Z" fill="#DADBD8"/>
<path d="M275.424 79.301C275.458 77.3077 273.83 76.1998 271.4 75.3011L271.261 83.1521C274.115 82.5774 275.392 81.121 275.424 79.301ZM265.888 65.4163L266.03 57.3392C263.006 57.9685 261.783 59.5982 261.749 61.4757C261.715 63.4653 263.401 64.5779 265.888 65.4163ZM271.128 90.662L271.016 97.034L265.333 96.9313L265.442 90.7318C259.82 90.2909 254.452 88.4332 251.369 85.9311L254.617 79.0457C257.422 81.2011 261.486 82.8092 265.574 83.2802L265.74 73.7788C259.457 72.133 252.447 69.9032 252.59 61.7678C252.697 55.7378 257.166 50.6385 266.163 49.7737L266.276 43.4582L271.961 43.559L271.85 49.7605C276.108 50.1778 280.237 51.3874 283.328 53.4335L280.363 60.382C277.493 58.6807 274.554 57.6614 271.718 57.2686L271.547 66.9405C277.831 68.5297 284.729 70.7586 284.587 78.7782C284.482 84.6951 280.072 89.7388 271.128 90.662Z" fill="#DADBD8"/>
<path d="M313.226 113.328C296.288 128.808 272.129 134.446 250.084 127.996C231.967 122.695 216.434 109.377 209.229 91.8028C201.9 73.9276 203.895 53.3035 214.286 37.0656C224.737 20.7325 242.829 10.044 262.063 8.18445C286.234 5.8463 310.129 16.9106 323.363 37.3802C325.331 40.423 330.222 37.5931 328.24 34.5267C315.498 14.8183 293.662 2.72533 270.199 2.23169C248.862 1.78235 227.692 11.0954 214.146 27.7036C200.733 44.1497 195.795 66.3658 201.585 86.8788C207.285 107.073 222.686 123.319 241.994 131.149C267.431 141.465 297.047 135.762 317.219 117.324C319.908 114.866 315.905 110.877 313.226 113.328Z" fill="#F3F2F1"/>
<path d="M307.997 35.514L331.006 20.008V43.4582L307.997 35.514Z" fill="#F3F2F1"/>
<path d="M220.489 149.144C220.489 149.144 254.992 158.237 265.901 194.654L251.234 201.163C251.234 201.163 247.874 175.83 213.688 164.797C195.194 158.828 170.706 167.252 163.921 174.968L147.462 167.863C158.508 155.74 185.672 139.647 220.489 149.144Z" fill="#5BC5F1"/>
<path d="M275.281 185.471L238.817 197.582L266.8 211.619L275.281 185.471Z" fill="#5BC5F1"/>
<path d="M177.451 399.19L48.4891 399.11C32.9789 399.101 20.4112 385.872 20.4141 369.56L20.4771 29.534C20.4799 13.2131 33.0655 -0.0140686 48.5851 -0.00466919L177.548 0.0754089C193.058 0.0848389 205.625 13.313 205.623 29.6244L205.56 369.652C205.557 385.973 192.969 399.199 177.451 399.19Z" fill="#17282F"/>
<path d="M177.411 12.1015L152.408 12.0864C149.055 12.0845 146.335 15.0717 146.335 18.7579L146.333 23.5284C146.334 27.2146 143.614 30.2018 140.261 30.2L91.5236 30.1689C88.1715 30.167 85.453 27.1769 85.4539 23.4898L85.4549 18.7202C85.4549 15.0341 82.7363 12.0431 79.3843 12.0412L70.5904 12.0356L48.7065 12.0223C37.8379 12.0157 29.0224 21.2788 29.0215 32.7096L28.9594 364.6C28.9575 376.025 37.7589 385.289 48.6218 385.296L177.325 385.374C188.194 385.381 197.008 376.118 197.011 364.687L197.073 32.7962C197.074 21.3721 188.273 12.1081 177.411 12.1015Z" fill="white"/>
<path d="M56.207 359.122V368.863C56.207 369.708 55.2779 370.219 54.5672 369.767L46.9161 364.897C46.2553 364.477 46.2553 363.508 46.9161 363.087L54.5672 358.218C55.2779 357.766 56.207 358.278 56.207 359.122Z" fill="#DADBD8"/>
<path d="M119.079 363.901C119.079 367.618 116.076 370.63 112.37 370.63C108.666 370.63 105.662 367.618 105.662 363.901C105.662 360.185 108.666 357.174 112.37 357.174C116.076 357.174 119.079 360.185 119.079 363.901Z" fill="#DADBD8"/>
<path d="M177.856 370.463H168.999C168.027 370.463 167.239 369.675 167.239 368.702V359.811C167.239 358.837 168.027 358.049 168.999 358.049H177.856C178.829 358.049 179.616 358.837 179.616 359.811V368.702C179.616 369.675 178.829 370.463 177.856 370.463Z" fill="#DADBD8"/>
<path d="M75.7366 131.958C79.1837 131.958 82.6309 131.958 86.0771 131.958C85.4059 131.447 84.7357 130.935 84.0645 130.424C85.5904 135.449 87.1163 140.475 88.6422 145.5C91.0633 153.473 93.4844 161.446 95.9045 169.419C96.4636 171.258 97.0219 173.098 97.581 174.938C97.8483 175.818 98.6598 176.474 99.5945 176.472C109.466 176.444 119.337 176.417 129.209 176.39C130.622 176.386 132.036 176.381 133.449 176.377C136.137 176.371 136.141 172.191 133.449 172.199C123.578 172.226 113.706 172.253 103.835 172.28C102.421 172.284 101.007 172.289 99.5945 172.293C100.266 172.803 100.937 173.315 101.607 173.826C100.081 168.801 98.5553 163.776 97.0294 158.75C94.6083 150.777 92.1882 142.804 89.7671 134.831C89.2089 132.992 88.6497 131.152 88.0915 129.312C87.8232 128.43 87.0127 127.778 86.0771 127.778C82.6309 127.778 79.1837 127.778 75.7366 127.778C73.0491 127.778 73.0444 131.958 75.7366 131.958Z" fill="#17282F"/>
<path d="M140.07 137.277C138.12 146.02 136.17 154.763 134.219 163.507C133.94 164.764 133.659 166.021 133.379 167.277C133.882 166.894 134.386 166.51 134.889 166.127C130.663 166.086 126.436 166.044 122.211 166.002C115.433 165.936 108.657 165.869 101.879 165.802C100.33 165.787 98.7803 165.772 97.23 165.757C97.7336 166.14 98.2372 166.524 98.7408 166.907C96.0213 158.252 93.3028 149.596 90.5842 140.94C90.2011 139.719 89.818 138.498 89.4339 137.277C88.9303 137.938 88.4267 138.599 87.924 139.261C93.9937 139.261 100.063 139.261 106.133 139.261C115.729 139.261 125.325 139.261 134.921 139.261C137.14 139.261 139.36 139.261 141.58 139.261C143.595 139.261 143.599 136.126 141.58 136.126C135.511 136.126 129.44 136.126 123.371 136.126C113.776 136.126 104.179 136.126 94.5839 136.126C92.3633 136.126 90.1437 136.126 87.924 136.126C86.9356 136.126 86.1063 137.132 86.4132 138.11C89.1317 146.765 91.8512 155.422 94.5698 164.077C94.9529 165.299 95.336 166.52 95.7201 167.741C95.929 168.407 96.523 168.884 97.23 168.891C101.457 168.933 105.683 168.975 109.909 169.015C116.685 169.082 123.463 169.149 130.239 169.215C131.79 169.231 133.339 169.246 134.889 169.261C135.548 169.268 136.252 168.773 136.398 168.111C138.349 159.367 140.299 150.624 142.249 141.88C142.529 140.623 142.81 139.366 143.09 138.11C143.528 136.145 140.509 135.305 140.07 137.277Z" fill="#17282F"/>
<path d="M98.5977 138.617C100.245 148.183 102.34 157.664 103.989 167.229C104.33 169.214 107.349 168.373 107.008 166.396C105.36 156.831 103.266 147.349 101.617 137.784C101.276 135.8 98.2569 136.64 98.5977 138.617Z" fill="#17282F"/>
<path d="M115.137 138.2C115.295 148.009 115.477 157.816 115.635 167.625C115.668 169.64 118.799 169.646 118.767 167.625C118.609 157.816 118.428 148.009 118.269 138.2C118.237 136.185 115.105 136.18 115.137 138.2Z" fill="#17282F"/>
<path d="M130.413 167.98C131.74 159.27 133.065 150.559 134.391 141.848C134.581 140.602 134.77 139.356 134.96 138.11C135.088 137.268 134.746 136.435 133.865 136.181C133.126 135.97 132.066 136.441 131.939 137.277C130.614 145.987 129.289 154.698 127.962 163.409C127.773 164.656 127.584 165.901 127.394 167.147C127.266 167.989 127.606 168.822 128.488 169.075C129.226 169.287 130.286 168.817 130.413 167.98Z" fill="#17282F"/>
<path d="M91.3353 148.436C107.128 148.436 122.921 148.436 138.713 148.436C140.729 148.436 140.731 145.302 138.713 145.302C122.921 145.302 107.128 145.302 91.3353 145.302C89.32 145.302 89.3171 148.436 91.3353 148.436Z" fill="#17282F"/>
<path d="M95.7775 159.441C109.454 159.441 123.131 159.441 136.808 159.441C138.824 159.441 138.827 156.307 136.808 156.307C123.131 156.307 109.454 156.307 95.7775 156.307C93.7621 156.307 93.7593 159.441 95.7775 159.441Z" fill="#17282F"/>
<path d="M139.022 184.648C139.022 187.729 136.527 190.226 133.449 190.226C130.372 190.226 127.877 187.729 127.877 184.648C127.877 181.569 130.372 179.072 133.449 179.072C136.527 179.072 139.022 181.569 139.022 184.648Z" fill="#17282F"/>
<path d="M108.375 184.648C108.375 187.729 105.881 190.226 102.803 190.226C99.7254 190.226 97.23 187.729 97.23 184.648C97.23 181.569 99.7254 179.072 102.803 179.072C105.881 179.072 108.375 181.569 108.375 184.648Z" fill="#17282F"/>
<path d="M92.1233 109.541C92.1233 109.541 69.1954 108.765 55.7571 129.177L63.5908 135.897C63.5908 135.897 70.3335 120.916 93.4232 120.437C105.916 120.178 114.509 127.469 117.264 133.474L131.434 133.231C126.868 123.723 115.318 110.125 92.1233 109.541Z" fill="#5BC5F1"/>
<path d="M52.7279 122.53L72.9513 136.727L54.5804 140.452L52.7279 122.53Z" fill="#5BC5F1"/>
<path d="M186.662 47.0559C186.662 48.3135 185.644 49.3328 184.387 49.3328C183.131 49.3328 182.112 48.3135 182.112 47.0559C182.112 45.7982 183.131 44.779 184.387 44.779C185.644 44.779 186.662 45.7982 186.662 47.0559Z" fill="#17282F"/>
<path d="M186.662 53.2856C186.662 54.5423 185.644 55.5616 184.387 55.5616C183.131 55.5616 182.112 54.5423 182.112 53.2856C182.112 52.0271 183.131 51.0078 184.387 51.0078C185.644 51.0078 186.662 52.0271 186.662 53.2856Z" fill="#17282F"/>
<path d="M186.662 59.5144C186.662 60.771 185.644 61.7913 184.387 61.7913C183.131 61.7913 182.112 60.771 182.112 59.5144C182.112 58.2567 183.131 57.2374 184.387 57.2374C185.644 57.2374 186.662 58.2567 186.662 59.5144Z" fill="#17282F"/>
<path d="M48.7395 45.9791L39.4524 52.9474H41.8179V61.2788L46.8258 61.2967V55.0632L50.7718 55.0444V61.2788H55.615V52.8645L58.0266 52.8391L48.7395 45.9791Z" fill="#17282F"/>
<path d="M197.671 70.0558C197.671 70.1915 159.767 70.3008 113.02 70.3008C66.2575 70.3008 28.3607 70.1915 28.3607 70.0558C28.3607 69.9202 66.2575 69.8109 113.02 69.8109C159.767 69.8109 197.671 69.9202 197.671 70.0558Z" fill="#DADBD8"/>
<path d="M111.23 319.629H109.72C104.627 319.629 100.497 315.497 100.497 310.399V236.122C100.497 231.024 104.627 226.891 109.72 226.891H111.23C116.324 226.891 120.452 231.024 120.452 236.122V310.399C120.452 315.497 116.324 319.629 111.23 319.629Z" fill="#DADBD8"/>
<path d="M149.331 275.457C149.353 293.194 134.97 307.591 117.205 307.614C115.279 307.616 113.392 307.45 111.56 307.128C96.4835 304.483 85.0181 291.353 84.9993 275.538C84.9767 257.801 99.3602 243.404 117.125 243.382C134.89 243.358 149.309 257.721 149.331 275.457Z" fill="#5BC5F1"/>
<path d="M142.562 275.799C142.579 289.315 131.618 300.286 118.08 300.303C104.543 300.32 93.5541 289.375 93.5371 275.859C93.5211 262.342 104.482 251.37 118.019 251.354C131.557 251.337 142.545 262.281 142.562 275.799Z" fill="#5BC5F1"/>
<path d="M141.677 275.467C141.668 275.467 141.653 275.333 141.631 275.071C141.61 274.785 141.581 274.4 141.545 273.909C141.528 273.652 141.509 273.366 141.488 273.053C141.452 272.741 141.384 272.402 141.326 272.032C141.207 271.295 141.091 270.44 140.804 269.51C140.364 267.623 139.472 265.395 138.067 263.037C136.652 260.688 134.617 258.238 131.851 256.162C129.095 254.106 125.62 252.36 121.615 251.661C117.637 250.985 113.15 251.114 108.876 252.74C107.789 253.091 106.766 253.628 105.715 254.133C105.202 254.41 104.713 254.736 104.206 255.036C103.689 255.325 103.216 255.682 102.742 256.045C101.758 256.722 100.895 257.567 99.9936 258.384C99.1785 259.286 98.3209 260.169 97.6187 261.194C96.1747 263.197 94.9171 265.425 94.1546 267.874C93.3658 270.308 92.9412 272.893 92.9092 275.524C92.9478 278.155 93.3761 280.74 94.1715 283.174C94.9387 285.622 96.2029 287.847 97.6516 289.847C98.3567 290.871 99.217 291.751 100.034 292.653C100.939 293.466 101.803 294.31 102.79 294.985C103.719 295.737 104.77 296.29 105.768 296.89C106.819 297.393 107.844 297.927 108.932 298.274C113.211 299.89 117.699 300.008 121.675 299.323C125.68 298.614 129.149 296.858 131.901 294.795C134.661 292.712 136.69 290.257 138.099 287.906C139.497 285.544 140.384 283.312 140.82 281.425C141.103 280.495 141.217 279.64 141.336 278.903C141.392 278.532 141.46 278.193 141.494 277.88C141.514 277.568 141.532 277.283 141.549 277.025C141.584 276.534 141.612 276.15 141.631 275.863C141.653 275.602 141.668 275.467 141.677 275.467C141.687 275.467 141.689 275.602 141.684 275.864C141.676 276.152 141.666 276.538 141.652 277.033C141.644 277.292 141.633 277.579 141.622 277.894C141.596 278.209 141.535 278.551 141.487 278.923C141.384 279.667 141.285 280.531 141.014 281.473C140.604 283.385 139.737 285.648 138.346 288.053C136.944 290.446 134.907 292.952 132.12 295.085C129.342 297.198 125.825 299.002 121.754 299.742C117.711 300.459 113.14 300.355 108.772 298.72C107.662 298.369 106.615 297.828 105.541 297.317C104.521 296.708 103.448 296.146 102.499 295.381C101.491 294.694 100.606 293.837 99.683 293.007C98.8471 292.089 97.9688 291.191 97.2468 290.147C95.7652 288.107 94.4728 285.835 93.6868 283.337C92.8725 280.853 92.4329 278.212 92.3953 275.524C92.4273 272.839 92.8612 270.198 93.6689 267.713C94.4502 265.213 95.736 262.938 97.213 260.895C97.9312 259.851 98.8076 258.949 99.6416 258.032C100.563 257.199 101.445 256.34 102.45 255.649C102.934 255.281 103.418 254.918 103.945 254.624C104.463 254.318 104.964 253.988 105.487 253.708C106.559 253.193 107.604 252.65 108.714 252.296C113.078 250.65 117.648 250.535 121.692 251.241C125.765 251.971 129.287 253.766 132.07 255.872C134.863 257.998 136.906 260.499 138.314 262.889C139.711 265.289 140.585 267.551 140.999 269.46C141.272 270.402 141.373 271.265 141.478 272.012C141.528 272.384 141.589 272.726 141.616 273.041C141.628 273.356 141.639 273.643 141.648 273.902C141.663 274.396 141.675 274.782 141.683 275.07C141.689 275.333 141.687 275.467 141.677 275.467Z" fill="#17282F"/>
<path d="M92.995 277.304C92.9469 276.714 92.9178 276.121 92.9093 275.524C92.9413 272.893 93.3658 270.308 94.1547 267.874C94.9171 265.425 96.1748 263.197 97.6188 261.194C98.321 260.169 99.1785 259.286 99.9937 258.384C100.896 257.567 101.758 256.722 102.742 256.045C103.216 255.682 103.689 255.325 104.206 255.036C104.713 254.736 105.202 254.41 105.715 254.133C106.766 253.628 107.789 253.091 108.876 252.74C111.598 251.705 114.407 251.276 117.115 251.276C118.042 251.276 118.957 251.326 119.853 251.419C119.257 251.376 118.656 251.354 118.05 251.354C118.041 251.354 118.03 251.354 118.019 251.354C105.701 251.369 95.5158 260.456 93.7932 272.278C93.6256 273.04 93.507 273.733 93.4167 274.337C93.1672 276.097 93.1183 277.155 92.995 277.304Z" fill="#1E6887"/>
<path d="M141.485 275.724C141.338 275.724 141.234 274.648 140.841 272.775C140.439 270.907 139.701 268.207 138.032 265.26C137.198 263.792 136.139 262.27 134.812 260.806C133.476 259.356 131.89 257.95 130.03 256.762C129.103 256.165 128.118 255.608 127.066 255.136C126.018 254.66 124.921 254.231 123.769 253.911C122.62 253.587 121.43 253.321 120.206 253.175C119.196 253.054 118.166 252.991 117.125 252.991C116.905 252.991 116.685 252.994 116.464 252.999C115.198 253.049 113.952 253.193 112.74 253.42C111.527 253.647 110.357 253.991 109.231 254.389C108.101 254.784 107.034 255.285 106.019 255.83C105.001 256.37 104.054 256.991 103.167 257.646C101.388 258.955 99.8957 260.464 98.6569 261.999C97.4285 263.545 96.4693 265.136 95.7322 266.655C94.7307 268.729 94.1508 270.66 93.7931 272.278C95.5157 260.456 105.701 251.37 118.019 251.354C118.029 251.354 118.041 251.354 118.05 251.354C118.656 251.354 119.257 251.376 119.853 251.419C120.45 251.482 121.038 251.563 121.615 251.661C125.62 252.36 129.095 254.106 131.851 256.162C134.616 258.238 136.652 260.688 138.067 263.037C139.472 265.395 140.364 267.623 140.804 269.51C141.091 270.44 141.207 271.295 141.326 272.032C141.384 272.402 141.452 272.741 141.488 273.053C141.509 273.366 141.528 273.652 141.545 273.909C141.579 274.364 141.606 274.728 141.627 275.008C141.597 275.477 141.538 275.723 141.486 275.724H141.485ZM141.516 272.282C141.503 272.193 141.49 272.103 141.478 272.012C141.448 271.791 141.417 271.56 141.382 271.321C141.436 271.659 141.481 271.979 141.516 272.282Z" fill="#1E6887"/>
<path d="M92.9629 277.322C92.8546 277.322 92.6438 276.245 92.6955 274.272C92.7605 272.307 93.137 269.4 94.5358 266.104C95.2352 264.463 96.1841 262.735 97.4389 261.044C98.7031 259.366 100.256 257.71 102.137 256.266C103.074 255.541 104.08 254.856 105.167 254.258C106.25 253.654 107.394 253.102 108.607 252.662C109.818 252.22 111.079 251.841 112.386 251.589C113.694 251.335 115.039 251.178 116.403 251.125C116.638 251.118 116.873 251.115 117.107 251.115C118.233 251.115 119.346 251.186 120.439 251.324C121.761 251.489 123.044 251.785 124.28 252.147C125.519 252.504 126.696 252.98 127.815 253.512C128.938 254.036 129.988 254.655 130.969 255.316C132.938 256.633 134.595 258.182 135.967 259.773C137.327 261.378 138.387 263.04 139.191 264.632C140.464 267.161 141.083 269.49 141.382 271.321C141.417 271.56 141.448 271.791 141.478 272.011C141.49 272.103 141.503 272.193 141.516 272.282C141.531 272.412 141.546 272.538 141.557 272.662C141.652 273.697 141.658 274.489 141.627 275.008C141.606 274.728 141.579 274.364 141.545 273.909C141.528 273.652 141.509 273.366 141.488 273.053C141.452 272.741 141.384 272.401 141.326 272.032C141.207 271.295 141.091 270.44 140.804 269.51C140.364 267.623 139.472 265.395 138.067 263.037C136.652 260.688 134.617 258.238 131.851 256.162C129.095 254.106 125.62 252.36 121.615 251.661C121.038 251.563 120.45 251.482 119.853 251.419C118.957 251.326 118.042 251.276 117.115 251.276C114.407 251.276 111.598 251.705 108.876 252.74C107.789 253.091 106.766 253.628 105.715 254.133C105.202 254.41 104.713 254.736 104.206 255.036C103.689 255.325 103.216 255.682 102.742 256.045C101.758 256.722 100.895 257.567 99.9936 258.384C99.1785 259.286 98.3209 260.169 97.6187 261.194C96.1747 263.197 94.9171 265.425 94.1546 267.874C93.3658 270.308 92.9412 272.893 92.9092 275.524C92.9177 276.121 92.9469 276.714 92.9949 277.304C92.9855 277.316 92.9751 277.322 92.9638 277.322C92.9638 277.322 92.9638 277.322 92.9629 277.322Z" fill="#0F191D"/>
<path d="M116.212 294.458L116.147 290.3C112.369 290.13 108.73 289.006 106.607 287.397L108.63 282.71C110.559 284.093 113.319 285.079 116.069 285.303L115.968 278.932C111.721 277.97 106.973 276.632 106.887 271.176C106.824 267.133 109.704 263.615 115.716 262.834L115.649 258.599L119.461 258.539L119.527 262.698C122.389 262.882 125.183 263.601 127.301 264.904L125.469 269.625C123.507 268.55 121.515 267.932 119.605 267.732L119.707 274.219C123.953 275.144 128.627 276.483 128.711 281.861C128.773 285.828 125.929 289.307 119.956 290.126L120.023 294.399L116.212 294.458ZM119.795 279.825L119.878 285.09C121.778 284.641 122.601 283.636 122.582 282.415C122.56 281.079 121.444 280.373 119.795 279.825ZM115.795 267.908C113.782 268.397 112.999 269.516 113.018 270.776C113.039 272.109 114.194 272.818 115.881 273.324L115.795 267.908Z" fill="#1E6887"/>
<path d="M62.6418 313.66H99.7715V230.608H62.6418V313.66Z" fill="white"/>
<path d="M305.816 268.194C309.95 286.686 298.288 305.037 279.77 309.184C277.763 309.635 275.757 309.899 273.771 309.989C257.437 310.731 242.437 299.701 238.751 283.213C234.616 264.723 246.276 246.371 264.797 242.223C283.316 238.075 301.682 249.704 305.816 268.194Z" fill="#5BC5F1"/>
<path d="M298.837 270.122C301.988 284.212 293.102 298.196 278.988 301.358C264.876 304.519 250.88 295.658 247.729 281.568C244.579 267.476 253.465 253.49 267.578 250.329C281.691 247.169 295.686 256.031 298.837 270.122Z" fill="#5BC5F1"/>
<path d="M297.838 269.981C297.828 269.983 297.78 269.848 297.696 269.578C297.609 269.285 297.49 268.891 297.338 268.387C297.261 268.122 297.175 267.83 297.081 267.509C296.971 267.19 296.821 266.853 296.675 266.481C296.38 265.739 296.06 264.875 295.546 263.972C294.649 262.107 293.203 259.991 291.191 257.857C289.172 255.737 286.48 253.655 283.115 252.132C279.764 250.627 275.737 249.613 271.399 249.814C267.094 250.033 262.444 251.21 258.364 253.899C257.312 254.515 256.369 255.313 255.391 256.084C254.921 256.491 254.485 256.945 254.026 257.376C253.556 257.797 253.143 258.278 252.735 258.767C251.865 259.703 251.162 260.785 250.41 261.845C249.769 262.975 249.08 264.095 248.586 265.327C247.544 267.751 246.748 270.366 246.521 273.097C246.263 275.818 246.421 278.612 246.997 281.363C247.647 284.099 248.693 286.694 250.086 289.047C251.454 291.421 253.288 293.448 255.262 295.198C256.235 296.101 257.335 296.82 258.397 297.57C259.529 298.209 260.626 298.888 261.811 299.363C262.954 299.931 264.178 300.263 265.357 300.657C266.572 300.938 267.764 301.257 268.979 301.366C273.815 302.059 278.523 301.138 282.511 299.501C286.521 297.832 289.731 295.196 292.122 292.406C294.518 289.594 296.065 286.562 296.989 283.782C297.9 280.995 298.308 278.463 298.324 276.393C298.404 275.358 298.324 274.44 298.277 273.643C298.25 273.245 298.241 272.875 298.206 272.54C298.155 272.209 298.107 271.909 298.065 271.636C297.987 271.116 297.926 270.709 297.882 270.404C297.844 270.126 297.828 269.983 297.838 269.981C297.847 269.979 297.881 270.119 297.936 270.394C297.996 270.695 298.074 271.101 298.174 271.62C298.225 271.892 298.281 272.193 298.342 272.523C298.387 272.859 298.404 273.23 298.439 273.629C298.505 274.431 298.602 275.354 298.538 276.4C298.554 278.487 298.175 281.048 297.28 283.878C296.374 286.7 294.831 289.786 292.419 292.656C290.012 295.505 286.763 298.202 282.689 299.92C278.639 301.606 273.848 302.559 268.914 301.869C267.676 301.76 266.459 301.439 265.22 301.154C264.016 300.757 262.767 300.42 261.599 299.842C260.39 299.361 259.268 298.67 258.113 298.02C257.027 297.258 255.903 296.524 254.909 295.604C252.891 293.822 251.018 291.752 249.618 289.329C248.194 286.928 247.124 284.276 246.461 281.483C245.872 278.675 245.712 275.82 245.978 273.04C246.213 270.252 247.026 267.582 248.092 265.109C248.6 263.852 249.305 262.71 249.961 261.559C250.729 260.477 251.45 259.376 252.34 258.424C252.758 257.925 253.178 257.435 253.659 257.008C254.128 256.568 254.574 256.108 255.055 255.693C256.054 254.908 257.019 254.099 258.093 253.471C262.261 250.742 267.001 249.561 271.382 249.359C275.798 249.175 279.887 250.229 283.277 251.778C286.681 253.347 289.391 255.481 291.414 257.645C293.428 259.824 294.863 261.981 295.737 263.876C296.24 264.794 296.547 265.672 296.829 266.423C296.966 266.8 297.109 267.142 297.212 267.465C297.296 267.791 297.375 268.088 297.444 268.356C297.574 268.868 297.676 269.267 297.751 269.566C297.817 269.839 297.847 269.979 297.838 269.981Z" fill="#17282F"/>
<path d="M247.498 283.199C247.312 282.595 247.144 281.983 246.997 281.363C246.421 278.612 246.263 275.818 246.521 273.097C246.748 270.366 247.544 267.751 248.586 265.327C249.08 264.095 249.769 262.975 250.41 261.845C251.162 260.785 251.865 259.703 252.735 258.767C253.144 258.278 253.556 257.797 254.026 257.376C254.485 256.945 254.921 256.491 255.391 256.084C256.369 255.313 257.312 254.515 258.364 253.899C261.852 251.6 265.754 250.407 269.503 249.972C268.862 250.067 268.221 250.185 267.578 250.329C254.738 253.206 246.224 265.041 247.166 277.766C247.167 278.603 247.204 279.355 247.251 280.008C247.398 281.902 247.593 283.016 247.498 283.199Z" fill="#1E6887"/>
<path d="M247.166 277.766C246.224 265.041 254.738 253.206 267.578 250.329C268.221 250.185 268.862 250.067 269.503 249.972C270.14 249.898 270.774 249.846 271.399 249.814C271.768 249.797 272.134 249.789 272.498 249.789C276.417 249.789 280.048 250.755 283.115 252.132C286.48 253.655 289.172 255.737 291.191 257.857C293.203 259.991 294.649 262.107 295.546 263.972C296.06 264.875 296.379 265.739 296.675 266.481C296.821 266.853 296.971 267.19 297.081 267.509C297.175 267.83 297.261 268.122 297.338 268.387C297.479 268.856 297.592 269.23 297.678 269.515C297.757 270.011 297.751 270.28 297.697 270.293C297.695 270.294 297.693 270.294 297.689 270.294C297.533 270.294 297.171 269.202 296.341 267.368C295.489 265.514 294.093 262.869 291.669 260.183C290.46 258.846 289.002 257.505 287.28 256.287C285.55 255.085 283.571 253.987 281.356 253.18C280.251 252.773 279.094 252.422 277.889 252.173C276.685 251.919 275.442 251.727 274.166 251.661C273.626 251.63 273.08 251.613 272.53 251.613C271.785 251.613 271.034 251.645 270.279 251.721C268.969 251.851 267.65 252.078 266.337 252.407C265.028 252.752 263.763 253.191 262.552 253.71C261.339 254.229 260.199 254.859 259.117 255.534C258.032 256.21 257.033 256.978 256.102 257.782C255.165 258.582 254.321 259.45 253.549 260.34C251.997 262.117 250.79 264.036 249.854 265.925C248.933 267.823 248.301 269.703 247.883 271.459C247.32 273.851 247.163 275.997 247.166 277.766ZM296.931 266.698C296.897 266.609 296.862 266.518 296.828 266.423C296.746 266.202 296.66 265.969 296.569 265.728C296.704 266.067 296.825 266.392 296.931 266.698Z" fill="#1E6887"/>
<path d="M247.466 283.226C247.346 283.226 246.882 282.154 246.484 280.107C246.095 278.043 245.814 274.923 246.509 271.163C246.858 269.289 247.447 267.266 248.362 265.213C249.293 263.169 250.527 261.081 252.155 259.138C252.963 258.165 253.854 257.217 254.848 256.342C255.838 255.46 256.904 254.62 258.067 253.879C259.225 253.136 260.453 252.448 261.758 251.882C263.062 251.314 264.429 250.838 265.839 250.465C267.255 250.11 268.679 249.869 270.094 249.736C270.84 249.665 271.584 249.634 272.321 249.634C272.983 249.634 273.64 249.66 274.289 249.702C275.664 249.789 277.003 250.011 278.293 250.305C279.585 250.592 280.824 250.993 282 251.453C284.359 252.37 286.445 253.6 288.244 254.943C290.035 256.3 291.525 257.788 292.733 259.259C294.646 261.603 295.833 263.887 296.569 265.728C296.66 265.969 296.746 266.202 296.828 266.423C296.862 266.518 296.897 266.609 296.931 266.698C296.977 266.83 297.02 266.958 297.062 267.084C297.401 268.143 297.591 268.967 297.678 269.515C297.592 269.23 297.479 268.856 297.338 268.387C297.261 268.122 297.175 267.83 297.081 267.509C296.971 267.19 296.821 266.853 296.675 266.481C296.379 265.739 296.06 264.875 295.546 263.972C294.649 262.107 293.202 259.991 291.191 257.857C289.172 255.737 286.48 253.655 283.115 252.132C280.048 250.755 276.417 249.789 272.498 249.789C272.134 249.789 271.768 249.797 271.399 249.814C270.773 249.846 270.14 249.898 269.503 249.972C265.754 250.407 261.852 251.6 258.364 253.899C257.312 254.515 256.369 255.313 255.391 256.084C254.921 256.491 254.485 256.945 254.026 257.376C253.556 257.797 253.143 258.278 252.735 258.767C251.865 259.703 251.162 260.785 250.41 261.845C249.769 262.975 249.08 264.095 248.586 265.327C247.543 267.751 246.748 270.366 246.521 273.097C246.263 275.818 246.42 278.612 246.997 281.363C247.144 281.983 247.312 282.595 247.498 283.199C247.492 283.214 247.482 283.223 247.471 283.226C247.469 283.226 247.467 283.226 247.466 283.226Z" fill="#0F191D"/>
<path d="M275.685 295.696L274.654 291.376C273.259 291.621 271.853 291.741 270.505 291.741C268.011 291.741 265.712 291.333 264.034 290.564L265.056 285.207C266.773 285.939 268.91 286.342 271.082 286.342C271.861 286.342 272.643 286.29 273.413 286.183L271.832 279.563C267.18 279.546 261.918 279.253 260.564 273.584C259.561 269.381 261.749 265.046 267.837 262.836L266.786 258.435L270.746 257.488L271.779 261.808C272.95 261.626 274.129 261.529 275.281 261.529C277.105 261.529 278.858 261.772 280.397 262.304L279.581 267.654C277.919 267.17 276.295 266.942 274.753 266.942C274.166 266.942 273.59 266.975 273.028 267.04L274.638 273.78C274.766 273.78 274.894 273.779 275.022 273.779C279.563 273.779 284.501 274.223 285.798 279.659C286.783 283.782 284.624 288.07 278.586 290.31L279.646 294.75L275.685 295.696ZM276.03 279.606L277.336 285.078C279.213 284.168 279.838 282.929 279.535 281.661C279.204 280.272 277.876 279.795 276.03 279.606ZM269.095 268.108C267.11 269.085 266.553 270.435 266.865 271.742C267.196 273.129 268.564 273.599 270.44 273.735L269.095 268.108Z" fill="#1E6887"/>
<path d="M231.619 253.141C222.65 272.19 199.913 280.34 180.834 271.345C178.766 270.37 176.826 269.233 175.021 267.958C160.179 257.464 154.53 237.549 162.528 220.563C171.496 201.514 194.233 193.363 213.312 202.361C232.39 211.356 240.587 234.091 231.619 253.141Z" fill="#5BC5F1"/>
<path d="M224.182 250.071C217.347 264.587 200.02 270.797 185.48 263.942C170.941 257.088 164.694 239.761 171.529 225.245C178.364 210.728 195.691 204.516 210.23 211.371C224.769 218.229 231.016 235.554 224.182 250.071Z" fill="#5BC5F1"/>
<path d="M223.4 249.266C223.389 249.261 223.441 249.11 223.55 248.817C223.673 248.499 223.837 248.07 224.046 247.526C224.158 247.241 224.283 246.926 224.42 246.579C224.54 246.225 224.638 245.827 224.764 245.401C225.009 244.548 225.318 243.571 225.483 242.429C225.966 240.18 226.138 237.335 225.825 234.091C225.498 230.851 224.555 227.187 222.639 223.556C220.722 219.949 217.879 216.31 213.935 213.526C210.006 210.782 205.125 208.641 199.713 208.218C198.369 208.041 196.998 208.099 195.614 208.108C194.924 208.144 194.233 208.245 193.536 208.31C192.837 208.358 192.147 208.501 191.455 208.651C190.054 208.877 188.699 209.347 187.319 209.764C185.986 210.319 184.618 210.832 183.343 211.575C180.778 212.992 178.299 214.745 176.24 216.986C174.159 219.198 172.393 221.758 171.024 224.566C169.732 227.41 168.881 230.402 168.501 233.417C168.084 236.434 168.312 239.465 168.854 242.348C169.092 243.804 169.568 245.186 169.988 246.569C170.547 247.901 171.047 249.245 171.764 250.471C172.38 251.75 173.227 252.877 173.994 254.027C174.869 255.101 175.697 256.195 176.689 257.121C180.462 261.027 185.22 263.432 189.836 264.715C194.493 265.987 199.107 265.865 203.106 265.048C207.125 264.213 210.548 262.608 213.252 260.799C215.951 258.975 218.033 257.03 219.457 255.225C220.234 254.372 220.789 253.511 221.29 252.779C221.538 252.411 221.783 252.082 221.979 251.763C222.158 251.438 222.323 251.142 222.47 250.873C222.758 250.364 222.982 249.965 223.149 249.668C223.304 249.399 223.389 249.261 223.4 249.266C223.408 249.271 223.343 249.416 223.206 249.695C223.051 250 222.843 250.41 222.579 250.932C222.438 251.207 222.281 251.51 222.11 251.841C221.921 252.166 221.683 252.503 221.443 252.879C220.954 253.626 220.41 254.504 219.642 255.376C218.233 257.219 216.154 259.209 213.443 261.083C210.725 262.941 207.268 264.596 203.196 265.47C199.143 266.327 194.453 266.477 189.708 265.206C185.005 263.922 180.15 261.49 176.291 257.517C175.277 256.576 174.428 255.465 173.535 254.37C172.749 253.2 171.883 252.051 171.251 250.748C170.517 249.499 170.003 248.129 169.432 246.769C168.999 245.36 168.513 243.949 168.267 242.463C167.711 239.521 167.475 236.427 167.898 233.345C168.283 230.266 169.151 227.208 170.473 224.306C171.868 221.438 173.673 218.824 175.8 216.567C177.906 214.279 180.439 212.491 183.06 211.049C184.361 210.292 185.758 209.77 187.119 209.207C188.529 208.782 189.912 208.307 191.342 208.077C192.048 207.926 192.751 207.784 193.465 207.736C194.176 207.67 194.881 207.57 195.585 207.534C196.997 207.527 198.394 207.475 199.765 207.658C205.283 208.107 210.247 210.304 214.23 213.115C218.231 215.967 221.101 219.682 223.021 223.355C224.94 227.055 225.866 230.776 226.165 234.057C226.448 237.343 226.239 240.215 225.715 242.475C225.531 243.624 225.202 244.603 224.937 245.454C224.801 245.879 224.694 246.278 224.563 246.63C224.416 246.974 224.282 247.288 224.161 247.571C223.927 248.109 223.743 248.529 223.607 248.843C223.479 249.126 223.408 249.271 223.4 249.266Z" fill="#17282F"/>
<path d="M170.215 226.519C170.461 225.862 170.731 225.21 171.024 224.566C172.393 221.758 174.159 219.198 176.24 216.986C178.299 214.745 180.778 212.992 183.343 211.575C184.618 210.832 185.986 210.319 187.318 209.764C188.699 209.347 190.054 208.877 191.455 208.651C192.147 208.501 192.837 208.358 193.536 208.31C194.233 208.245 194.923 208.144 195.613 208.108C196.192 208.103 196.769 208.091 197.343 208.091C198.14 208.091 198.931 208.116 199.713 208.218C204.338 208.58 208.577 210.197 212.164 212.372C211.537 212.018 210.892 211.684 210.23 211.371C206.214 209.478 201.985 208.581 197.824 208.581C188.278 208.581 179.084 213.301 173.622 221.526C173.054 222.26 172.575 222.945 172.171 223.55C171.01 225.312 170.422 226.422 170.215 226.519Z" fill="#1E6887"/>
<path d="M223.073 249.446C223.069 249.446 223.066 249.446 223.063 249.444C222.903 249.376 223.336 248.168 223.866 245.951C224.381 243.744 224.958 240.47 224.661 236.458C224.509 234.46 224.145 232.288 223.464 230.044C222.763 227.809 221.775 225.494 220.381 223.274C219.688 222.162 218.911 221.064 218.024 220.025C217.141 218.981 216.18 217.963 215.106 217.035C214.036 216.105 212.895 215.215 211.654 214.437C210.415 213.657 209.103 212.956 207.726 212.348C206.342 211.76 204.931 211.28 203.516 210.91C202.098 210.537 200.668 210.311 199.258 210.167C198.403 210.077 197.552 210.039 196.71 210.039C196.162 210.039 195.619 210.055 195.082 210.083C193.715 210.146 192.383 210.331 191.098 210.585C188.524 211.086 186.159 211.948 184.05 212.966C181.948 214.003 180.113 215.222 178.551 216.478C176.427 218.195 174.825 219.971 173.622 221.526C179.084 213.301 188.278 208.581 197.824 208.581C201.985 208.581 206.214 209.478 210.23 211.371C210.892 211.684 211.537 212.018 212.164 212.372C212.773 212.742 213.364 213.127 213.935 213.526C217.879 216.311 220.722 219.949 222.639 223.556C224.555 227.187 225.498 230.851 225.825 234.091C226.138 237.335 225.966 240.18 225.483 242.429C225.318 243.571 225.009 244.548 224.764 245.401C224.638 245.827 224.54 246.225 224.42 246.579C224.283 246.926 224.158 247.241 224.046 247.526C223.852 248.031 223.697 248.435 223.577 248.745C223.321 249.211 223.139 249.446 223.073 249.446ZM224.842 245.76C224.873 245.66 224.904 245.558 224.937 245.454C225.016 245.202 225.1 244.938 225.184 244.662C225.072 245.052 224.957 245.419 224.842 245.76Z" fill="#1E6887"/>
<path d="M223.577 248.745C223.697 248.435 223.852 248.031 224.046 247.526C224.158 247.241 224.283 246.926 224.42 246.579C224.54 246.225 224.638 245.827 224.764 245.401C225.009 244.548 225.318 243.571 225.483 242.429C225.966 240.18 226.138 237.335 225.825 234.091C225.498 230.851 224.555 227.187 222.639 223.556C220.722 219.949 217.879 216.31 213.935 213.526C213.364 213.127 212.773 212.742 212.164 212.372C208.577 210.197 204.338 208.58 199.713 208.218C198.931 208.116 198.14 208.091 197.343 208.091C196.769 208.091 196.192 208.103 195.614 208.108C194.924 208.144 194.233 208.245 193.536 208.31C192.837 208.358 192.147 208.501 191.455 208.651C190.054 208.877 188.699 209.347 187.319 209.764C185.986 210.319 184.618 210.832 183.343 211.575C180.778 212.992 178.299 214.745 176.24 216.986C174.159 219.198 172.393 221.758 171.024 224.566C170.731 225.21 170.461 225.862 170.215 226.519C170.204 226.524 170.195 226.527 170.187 226.527C170.182 226.527 170.176 226.526 170.171 226.523C170.052 226.475 170.37 225.211 171.43 223.113C172.495 221.037 174.374 218.108 177.546 215.28C179.129 213.874 181.023 212.502 183.227 211.323C185.436 210.164 187.942 209.175 190.692 208.579C192.066 208.277 193.493 208.053 194.963 207.962C195.662 207.916 196.372 207.889 197.089 207.889C197.874 207.889 198.666 207.922 199.464 207.996C200.988 208.136 202.534 208.37 204.066 208.764C205.597 209.156 207.119 209.669 208.611 210.305C210.096 210.96 211.511 211.718 212.844 212.569C214.178 213.417 215.405 214.386 216.548 215.4C217.695 216.414 218.719 217.524 219.65 218.662C220.59 219.796 221.404 220.991 222.121 222.199C223.567 224.613 224.56 227.117 225.226 229.522C225.871 231.935 226.166 234.256 226.224 236.373C226.307 239.732 225.792 242.545 225.184 244.662C225.1 244.938 225.016 245.202 224.937 245.454C224.904 245.558 224.873 245.66 224.842 245.76C224.792 245.909 224.742 246.054 224.692 246.193C224.269 247.352 223.875 248.203 223.577 248.745Z" fill="#0F191D"/>
<path d="M190.559 258.591L186.438 256.719L188.475 252.225C184.508 250.123 181.171 247.068 179.709 244.265L184.255 240.261C185.625 242.724 188.087 245.184 190.925 246.82L194.047 239.93C189.976 236.741 185.557 232.894 188.232 226.995C189.692 223.775 192.721 221.672 196.952 221.672C198.466 221.672 200.133 221.941 201.937 222.524L204.013 217.945L208.135 219.816L206.097 224.314C209.075 225.965 211.711 228.154 213.324 230.627L208.962 234.766C207.403 232.615 205.577 230.941 203.629 229.757L200.45 236.771C204.539 239.919 208.876 243.73 206.239 249.545C204.802 252.715 201.798 254.793 197.574 254.793C196.08 254.793 194.436 254.533 192.653 253.97L190.559 258.591ZM197.702 242.834L195.122 248.526C195.623 248.633 196.082 248.684 196.499 248.684C197.966 248.684 198.913 248.056 199.38 247.029C200.034 245.583 199.194 244.259 197.702 242.834ZM198.107 227.862C196.503 227.862 195.509 228.594 195.016 229.679C194.362 231.121 195.244 232.467 196.797 233.867L199.449 228.01C198.962 227.91 198.515 227.862 198.107 227.862Z" fill="#1E6887"/>
<path d="M387.001 400H240.467C236.372 400 233.054 396.678 233.054 392.581V292.651C233.054 288.554 236.372 285.232 240.467 285.232H387.001C391.094 285.232 394.413 288.554 394.413 292.651V392.581C394.413 396.678 391.094 400 387.001 400Z" fill="#33535F"/>
<path d="M392.041 359.25H350.274C343.343 359.25 337.724 353.626 337.724 346.691V344.634C337.724 337.698 343.343 332.075 350.274 332.075H392.041C398.972 332.075 404.59 337.698 404.59 344.634V346.691C404.59 353.626 398.972 359.25 392.041 359.25Z" fill="#33535F"/>
<path d="M350.274 332.546C343.614 332.546 338.195 337.97 338.195 344.634V346.691C338.195 353.356 343.614 358.779 350.274 358.779H392.041C398.701 358.779 404.12 353.356 404.12 346.691V344.634C404.12 337.97 398.701 332.546 392.041 332.546H350.274ZM392.041 359.721H350.274C343.095 359.721 337.254 353.876 337.254 346.691V344.634C337.254 337.45 343.095 331.604 350.274 331.604H392.041C399.22 331.604 405.061 337.45 405.061 344.634V346.691C405.061 353.876 399.22 359.721 392.041 359.721Z" fill="#17282F"/>
<path d="M362.365 345.662C362.365 350.995 358.046 355.318 352.717 355.318C347.388 355.318 343.069 350.995 343.069 345.662C343.069 340.33 347.388 336.007 352.717 336.007C358.046 336.007 362.365 340.33 362.365 345.662Z" fill="#17282F"/>
<path d="M340.956 77.5064C340.672 87.4176 344.877 97.3712 352.177 104.073C353.85 99.2252 355.521 94.3784 357.194 89.5316" fill="#17282F"/>
<path d="M378.769 48.5811C374.463 46.226 369.263 45.8878 364.45 46.8515C359.639 47.8152 355.156 49.9951 350.91 52.4538C348.526 53.8339 346.15 55.3506 344.438 57.5069C341.311 61.4437 338.22 67.908 337.919 72.9281C337.675 76.9864 339.229 87.1473 340.943 90.8335C342.516 94.2173 349.878 96.7919 353.511 97.6266L386.855 58.8201C385.676 54.5084 382.688 50.7242 378.769 48.5811Z" fill="#17282F"/>
<path d="M384.518 53.815L376.525 52.385C380.893 62.7984 382.079 86.6122 384.578 97.6266C387.524 93.3487 394.367 80.3175 394.001 75.1344C393.634 69.9513 394.016 52.9324 384.518 53.815Z" fill="#17282F"/>
<path d="M389.088 70.7925C388.567 62.8021 383.254 53.0077 375.299 53.8687L356.892 58.5676C350.987 60.0759 347.051 65.0658 346.621 71.1495C346.6 71.4529 346.569 71.0826 346.574 71.3116L350.683 119.015L364.5 146.457L376.704 123.307C376.71 119.417 376.703 110.689 376.704 110.709C376.704 110.709 386.902 108.99 388.987 95.6652C390.022 89.0379 389.667 79.6693 389.088 70.7925Z" fill="#F9A78D"/>
<path d="M383.385 81.723C383.419 82.6255 382.684 83.398 381.743 83.4507C380.804 83.5025 380.014 82.8167 379.98 81.9133C379.946 81.0117 380.682 80.2383 381.62 80.1856C382.561 80.1338 383.351 80.8205 383.385 81.723Z" fill="#17282F"/>
<path d="M387.089 76.0114C386.878 76.2347 385.583 75.2794 383.746 75.2889C381.91 75.271 380.565 76.2196 380.365 75.9954C380.267 75.8955 380.482 75.4933 381.068 75.0646C381.645 74.637 382.629 74.2206 383.774 74.2225C384.919 74.2262 385.882 74.6464 386.435 75.076C387.001 75.5084 387.194 75.9115 387.089 76.0114Z" fill="#17282F"/>
<path d="M367.985 81.723C368.019 82.6255 367.284 83.398 366.343 83.4507C365.405 83.5025 364.614 82.8167 364.58 81.9133C364.546 81.0117 365.282 80.2383 366.221 80.1856C367.161 80.1338 367.952 80.8205 367.985 81.723Z" fill="#17282F"/>
<path d="M369.644 76.0114C369.432 76.2347 368.136 75.2804 366.299 75.2889C364.465 75.271 363.118 76.2196 362.919 75.9954C362.821 75.8955 363.034 75.4933 363.622 75.0646C364.198 74.637 365.184 74.2206 366.327 74.2225C367.471 74.2262 368.435 74.6464 368.99 75.076C369.553 75.5084 369.746 75.9115 369.644 76.0114Z" fill="#17282F"/>
<path d="M375.387 90.4501C375.378 90.3455 376.519 90.1458 378.37 89.9046C378.839 89.8547 379.281 89.7605 379.36 89.4402C379.47 89.1011 379.273 88.5952 379.044 88.0498C378.6 86.9146 378.136 85.7248 377.649 84.4785C375.711 79.3933 374.307 75.2107 374.513 75.1353C374.718 75.059 376.455 79.1183 378.393 84.2043C378.859 85.4573 379.305 86.6527 379.73 87.7963C379.908 88.3295 380.216 88.9343 379.978 89.638C379.852 89.9894 379.509 90.2447 379.208 90.3267C378.907 90.419 378.644 90.4246 378.411 90.4388C376.549 90.5433 375.393 90.5546 375.387 90.4501Z" fill="#17282F"/>
<path d="M359.048 105.968C359.048 105.968 363.381 115.118 376.7 113.842L376.704 110.709C376.704 110.709 367.932 111.285 359.048 105.968Z" fill="#F57F62"/>
<path d="M369.068 69.3681C368.887 69.8684 367.052 69.6357 364.898 69.9004C362.737 70.1218 361.001 70.7567 360.715 70.3092C360.586 70.0954 360.888 69.6244 361.59 69.1383C362.285 68.6541 363.395 68.1925 364.689 68.0446C365.983 67.9004 367.168 68.1039 367.953 68.4214C368.746 68.7389 369.145 69.1307 369.068 69.3681Z" fill="#17282F"/>
<path d="M386.491 70.3884C386.169 70.8057 384.902 70.3752 383.381 70.3582C381.859 70.2885 380.57 70.6455 380.272 70.2093C380.141 69.9974 380.344 69.5791 380.907 69.1825C381.46 68.7869 382.387 68.4637 383.433 68.492C384.479 68.524 385.387 68.8999 385.916 69.3267C386.455 69.7544 386.633 70.1839 386.491 70.3884Z" fill="#17282F"/>
<path d="M385.471 58.626C384.658 56.6213 382.46 55.4174 380.3 55.3081C378.141 55.1989 376.033 56.0166 374.16 57.099C366.233 61.6848 362.158 72.7613 354.326 77.5064C352.399 78.6736 349.892 77.6044 348.252 79.1493C346.614 80.6952 345.551 83.1662 346.457 85.2283C345.405 83.7842 344.338 82.3127 343.74 80.6283C343.142 78.9439 343.066 76.9845 343.96 75.4358C344.637 74.261 345.834 73.3633 346.163 72.0473C346.451 70.8885 345.996 69.678 346.046 68.4854C346.096 67.2711 346.668 66.1444 347.265 65.0865C350.332 59.6557 354.554 54.7439 359.989 51.6898C363.541 49.6945 367.601 48.5273 371.671 48.6658C375.743 48.8052 379.807 50.3021 382.787 53.0812C384.538 54.7156 386.381 56.4075 385.471 58.626Z" fill="#17282F"/>
<path d="M348.445 80.8007C348.304 80.4192 341.361 77.9115 341.269 85.2971C341.18 92.4726 348.413 91.0596 348.428 90.8542C348.443 90.6488 348.445 80.8007 348.445 80.8007Z" fill="#F9A78D"/>
<path d="M346.242 88.1157C346.21 88.0921 346.116 88.2014 345.904 88.2956C345.698 88.3879 345.343 88.4501 344.97 88.3069C344.215 88.0215 343.589 86.8119 343.566 85.5185C343.554 84.8656 343.697 84.2448 343.932 83.7324C344.156 83.2086 344.499 82.845 344.88 82.7809C345.262 82.6971 345.529 82.9279 345.616 83.1314C345.709 83.332 345.663 83.4752 345.7 83.4874C345.72 83.5063 345.856 83.3687 345.8 83.072C345.772 82.9288 345.69 82.7592 345.522 82.6198C345.351 82.4785 345.099 82.4041 344.833 82.4305C344.28 82.4634 343.778 82.9674 343.518 83.5308C343.228 84.096 343.052 84.7931 343.066 85.527C343.099 86.973 343.826 88.3333 344.86 88.6432C345.362 88.7798 345.784 88.631 346.003 88.4633C346.227 88.289 346.266 88.1279 346.242 88.1157Z" fill="#F57F62"/>
<path d="M345.592 77.1136C345.598 77.123 345.746 77.0401 346.025 76.8715C346.299 76.6972 346.722 76.4645 347.227 76.1066C348.23 75.3821 349.62 74.2338 351.098 72.5805C352.586 70.9376 354.143 68.8057 355.832 66.4271C357.523 64.0532 359.38 61.4258 361.749 59.0537C362.956 57.8941 364.222 56.8531 365.567 56.0336C366.907 55.2083 368.313 54.5988 369.692 54.1608C372.452 53.2715 375.103 53.0774 377.286 53.2272C379.479 53.3647 381.214 53.8301 382.374 54.2258C382.963 54.4048 383.399 54.6026 383.702 54.7185C384.005 54.8372 384.166 54.8946 384.171 54.8843C384.176 54.8739 384.023 54.7967 383.729 54.6582C383.433 54.5225 383.003 54.3049 382.417 54.1052C381.262 53.67 379.518 53.166 377.303 52.9964C375.097 52.8146 372.408 52.9861 369.6 53.8735C368.198 54.3106 366.767 54.9229 365.4 55.7594C364.03 56.5903 362.74 57.6463 361.519 58.8201C359.122 61.2214 357.264 63.8694 355.585 66.2519C353.91 68.6409 352.38 70.7755 350.925 72.4269C349.478 74.0878 348.125 75.2512 347.153 76.0039C346.661 76.375 346.252 76.6237 345.99 76.815C345.724 77.0015 345.585 77.1032 345.592 77.1136Z" fill="#33535F"/>
<path d="M347.395 79.1437C347.283 81.1031 347.192 83.1728 348.097 84.9146C349.002 86.6555 351.284 87.8406 352.987 86.8665C354.376 86.0715 354.792 84.292 355.027 82.7084C355.707 78.1376 356.018 73.5178 356.737 68.9537L347.395 79.1437Z" fill="#17282F"/>
<path d="M383.706 55.2121C383.7 55.2535 383.074 55.0924 381.924 55.0557C380.781 55.0256 379.094 55.1763 377.179 55.9243C376.225 56.2954 375.21 56.7891 374.207 57.4551C373.2 58.1202 372.175 58.9171 371.14 59.7989C369.083 61.5774 366.953 63.7168 365.136 66.2763C364.225 67.5566 363.419 68.8726 362.544 70.0907C361.678 71.3134 360.715 72.4175 359.669 73.3256C357.585 75.1381 355.438 76.408 353.611 77.3821C351.776 78.3514 350.243 79.0316 349.186 79.5026C348.685 79.7146 348.279 79.8879 347.958 80.0245C347.676 80.1394 347.525 80.1941 347.52 80.1809C347.514 80.1686 347.654 80.0895 347.925 79.9501C348.237 79.7965 348.633 79.6006 349.119 79.3594C350.155 78.846 351.668 78.1282 353.475 77.1315C355.275 76.131 357.387 74.8461 359.425 73.0459C360.44 72.1509 361.372 71.0713 362.223 69.8608C363.082 68.655 363.887 67.3371 364.807 66.0427C366.651 63.4465 368.81 61.2958 370.899 59.5163C371.953 58.6326 372.993 57.8404 374.025 57.1753C375.057 56.5074 376.1 56.0185 377.079 55.6567C379.046 54.9295 380.774 54.8192 381.931 54.8993C382.513 54.9379 382.961 55.0152 383.258 55.0849C383.555 55.1546 383.709 55.1989 383.706 55.2121Z" fill="#33535F"/>
<path d="M347.197 74.7114C347.209 74.7331 346.985 74.8829 346.563 75.14C346.072 75.4283 345.467 75.7835 344.748 76.2064C344.551 76.3195 344.347 76.4363 344.136 76.5569C343.907 76.6822 343.657 76.7924 343.351 76.8169C343.201 76.8263 343.023 76.8131 342.866 76.7029C342.71 76.5974 342.609 76.4184 342.598 76.23C342.583 75.8522 342.785 75.5762 342.937 75.3228C343.583 74.2866 344.291 73.1514 345.044 71.9456L345.328 72.2103C344.656 72.7086 343.873 73.1062 343.024 73.3596C342.171 73.6149 341.296 73.7119 340.458 73.662C340.252 73.6554 340.021 73.6281 339.808 73.5508C339.598 73.4764 339.354 73.3342 339.251 73.0657C339.145 72.8038 339.245 72.5136 339.371 72.3403C339.496 72.1557 339.65 72.02 339.779 71.8919C340.846 70.8604 341.644 69.7732 342.221 68.8095C343.372 66.8689 343.7 65.4775 343.774 65.5049C343.797 65.5114 343.737 65.86 343.548 66.4704C343.354 67.0781 343.029 67.9504 342.468 68.9527C341.911 69.9532 341.119 71.0836 340.04 72.1566C339.773 72.41 339.506 72.702 339.61 72.9281C339.696 73.1542 340.103 73.2654 340.48 73.2682C341.271 73.3097 342.101 73.2155 342.908 72.9734C343.713 72.7331 344.455 72.3601 345.094 71.8919L345.95 71.2654L345.377 72.1566C344.609 73.353 343.886 74.4797 343.227 75.5074C343.062 75.7552 342.913 76.0011 342.921 76.2074C342.931 76.4109 343.106 76.5305 343.336 76.5135C343.8 76.4891 344.22 76.1725 344.623 75.9813C345.366 75.5998 345.989 75.2785 346.496 75.0185C346.939 74.8 347.186 74.6897 347.197 74.7114Z" fill="#33535F"/>
<path d="M373.797 93.9422C373.134 93.1339 372.006 92.7137 370.903 92.8645C370.138 92.969 369.375 93.3572 368.927 93.9865C368.481 94.6157 368.411 95.4918 368.853 96.0646C369.351 96.7108 370.354 96.8324 371.19 96.5714C372.026 96.3095 372.735 95.7405 373.408 95.1744C373.594 95.018 373.784 94.855 373.898 94.6449C374.01 94.4349 374.026 94.1635 373.874 93.9968" fill="#F57F62"/>
<path d="M369.246 91.0879C369.534 91.0624 369.596 92.9512 371.282 94.2418C372.964 95.5371 375.003 95.262 375.027 95.5267C375.057 95.6436 374.583 95.9073 373.72 95.9563C372.874 96.011 371.628 95.7811 370.597 94.9917C369.568 94.2004 369.103 93.1161 369.013 92.3426C368.915 91.556 369.115 91.0813 369.246 91.0879Z" fill="#17282F"/>
<path d="M395.992 218.602L403.695 236.024L366.285 250.038L357.913 231.293L395.992 218.602Z" fill="#17282F"/>
<path d="M471.598 324.64L481.833 346.748C481.833 346.748 507.386 343.366 509.675 347.268L467.892 369.064L450.533 335.27L471.598 324.64Z" fill="#33535F"/>
<path d="M468.2 351.475C467.494 352.117 467.396 353.328 468.007 354.062C468.619 354.795 469.849 354.906 470.568 354.277C471.286 353.649 471.449 352.197 470.759 351.536C470.07 350.875 468.617 350.824 468.071 351.608" fill="#DADBD8"/>
<path d="M467.891 369.061L466.508 366.371L507.488 346.031C507.488 346.031 509.244 346.174 510.001 347.385L467.891 369.061Z" fill="#17282F"/>
<path d="M482.285 346.692C482.383 346.903 481.395 347.524 480.714 348.708C480.002 349.875 479.932 351.039 479.701 351.054C479.489 351.111 479.17 349.715 480.019 348.295C480.856 346.868 482.233 346.479 482.285 346.692Z" fill="#17282F"/>
<path d="M487.669 346.274C487.819 346.451 487.099 347.258 486.842 348.493C486.546 349.72 486.85 350.758 486.639 350.854C486.461 350.986 485.702 349.844 486.052 348.316C486.39 346.785 487.564 346.078 487.669 346.274Z" fill="#17282F"/>
<path d="M492.901 350.319C492.735 350.459 491.92 349.57 491.877 348.163C491.822 346.758 492.572 345.814 492.747 345.943C492.951 346.053 492.631 346.982 492.685 348.136C492.711 349.29 493.096 350.194 492.901 350.319Z" fill="#17282F"/>
<path d="M479.373 341.879C479.383 342.113 478.287 342.31 477.156 342.983C476.012 343.635 475.3 344.49 475.102 344.368C474.907 344.278 475.407 343.059 476.75 342.283C478.085 341.497 479.393 341.664 479.373 341.879Z" fill="#17282F"/>
<path d="M477.756 336.816C477.801 336.901 477.048 337.446 475.626 337.886C474.917 338.104 474.041 338.28 473.056 338.331C472.564 338.357 472.043 338.35 471.507 338.304C471.249 338.276 470.952 338.268 470.612 338.13C470.273 338.031 469.864 337.546 469.957 337.075C470.01 336.638 470.322 336.303 470.624 336.14C470.933 335.97 471.218 335.905 471.478 335.845C472.008 335.719 472.531 335.651 473.029 335.628C474.027 335.585 474.922 335.717 475.641 335.919C477.088 336.331 477.816 336.934 477.765 337.011C477.707 337.127 476.898 336.721 475.516 336.477C474.826 336.357 473.992 336.293 473.079 336.372C472.623 336.413 472.148 336.491 471.667 336.615C471.158 336.725 470.775 336.916 470.761 337.174C470.757 337.272 470.768 337.305 470.928 337.389C471.087 337.461 471.329 337.487 471.585 337.514C472.084 337.569 472.57 337.59 473.032 337.586C473.959 337.578 474.794 337.469 475.486 337.33C476.874 337.053 477.702 336.702 477.756 336.816Z" fill="#17282F"/>
<path d="M431.84 360.169L430.546 384.5C430.546 384.5 454.711 393.478 454.909 397.999L407.791 397.692L408.253 359.698L431.84 360.169Z" fill="#33535F"/>
<path d="M416.29 382.293C415.365 382.528 414.711 383.553 414.908 384.487C415.106 385.422 416.143 386.096 417.071 385.877C418 385.657 418.822 384.451 418.522 383.544C418.221 382.638 416.961 381.913 416.111 382.348" fill="#DADBD8"/>
<path d="M407.791 397.69L407.829 394.663L453.555 395.88C453.555 395.88 455.04 396.829 455.142 398.254L407.791 397.69Z" fill="#17282F"/>
<path d="M430.973 384.662C430.962 384.894 429.797 384.979 428.642 385.707C427.467 386.404 426.86 387.401 426.649 387.305C426.435 387.256 426.806 385.873 428.221 385.017C429.628 384.148 431.027 384.45 430.973 384.662Z" fill="#17282F"/>
<path d="M435.926 386.813C435.976 387.039 434.963 387.417 434.157 388.387C433.323 389.332 433.105 390.393 432.874 390.378C432.655 390.411 432.519 389.047 433.543 387.86C434.558 386.665 435.925 386.591 435.926 386.813Z" fill="#17282F"/>
<path d="M438.657 392.838C438.445 392.884 438.142 391.717 438.76 390.454C439.369 389.186 440.474 388.704 440.569 388.899C440.696 389.093 439.98 389.764 439.487 390.807C438.971 391.84 438.888 392.82 438.657 392.838Z" fill="#17282F"/>
<path d="M430.651 379.044C430.549 379.253 429.49 378.915 428.175 378.981C426.859 379.021 425.831 379.445 425.713 379.244C425.581 379.073 426.593 378.229 428.143 378.173C429.691 378.105 430.768 378.863 430.651 379.044Z" fill="#17282F"/>
<path d="M431.589 373.813C431.59 373.909 430.668 374.037 429.205 373.759C428.478 373.621 427.622 373.367 426.727 372.951C426.28 372.742 425.823 372.494 425.371 372.2C425.155 372.056 424.897 371.909 424.662 371.628C424.408 371.381 424.273 370.762 424.576 370.389C424.826 370.027 425.259 369.877 425.603 369.875C425.954 369.87 426.236 369.945 426.495 370.014C427.021 370.151 427.516 370.336 427.966 370.548C428.868 370.978 429.598 371.514 430.139 372.029C431.224 373.071 431.587 373.947 431.506 373.989C431.4 374.065 430.875 373.327 429.766 372.463C429.214 372.034 428.506 371.588 427.663 371.229C427.241 371.052 426.784 370.898 426.301 370.783C425.801 370.642 425.371 370.631 425.239 370.853C425.191 370.938 425.184 370.971 425.287 371.122C425.394 371.259 425.595 371.396 425.809 371.539C426.224 371.822 426.644 372.067 427.054 372.282C427.877 372.707 428.666 373.003 429.343 373.204C430.698 373.609 431.594 373.688 431.589 373.813Z" fill="#17282F"/>
<path d="M324.089 243.353C324.089 243.353 418.497 231.525 424.057 231.523C437.118 231.517 445.312 241.482 447.263 249.169C448.705 254.857 477.765 337.011 477.765 337.011L456.328 348.132L424.801 292.069L408.732 264.097L325.932 276.901L324.089 243.353Z" fill="#17282F"/>
<path d="M412.635 261.513C412.635 261.513 425.573 261.513 432.56 271.872C436.667 277.961 435.224 288.842 435.307 297.054C435.419 308.236 432.72 376.36 432.72 376.36L406.255 376.803L400.71 305.801L401.039 292.679L348.198 288.379C348.198 288.379 343.387 272.349 355.22 259.701C356.742 258.074 412.635 261.513 412.635 261.513Z" fill="#17282F"/>
<path d="M332.158 220.514C332.158 220.514 311.288 252.656 324.089 276.802C330.191 288.312 348.446 288.297 348.446 288.297L367.163 264.839V226.033L332.158 220.514Z" fill="#17282F"/>
<path d="M348.446 288.297C348.442 288.288 348.562 288.226 348.798 288.112C349.058 287.99 349.407 287.828 349.85 287.62C350.809 287.186 352.175 286.567 353.923 285.776C357.495 284.182 362.618 281.898 368.937 279.08C375.293 276.268 382.847 272.924 391.234 269.213C395.433 267.361 399.84 265.417 404.408 263.403C405.562 262.916 406.673 262.351 407.901 261.931C409.11 261.481 410.378 261.203 411.661 260.97C414.237 260.573 416.901 260.566 419.55 260.901C422.201 261.23 424.778 261.94 427.144 263.057C428.308 263.645 429.455 264.292 430.408 265.193C431.386 266.055 432.16 267.103 432.805 268.194C434.085 270.393 434.8 272.839 435.013 275.267C435.118 276.496 435.046 277.677 435.048 278.854C435.037 280.029 435.024 281.193 435.012 282.339C434.908 291.517 434.813 299.784 434.734 306.738C434.635 313.66 434.556 319.271 434.499 323.185C434.46 325.104 434.43 326.605 434.41 327.657C434.394 328.146 434.381 328.531 434.373 328.819C434.361 329.081 434.35 329.215 434.342 329.215C434.332 329.215 434.325 329.081 434.318 328.819C434.314 328.531 434.309 328.145 434.302 327.656C434.3 326.604 434.298 325.102 434.294 323.183C434.309 319.27 434.332 313.657 434.359 306.735C434.406 299.782 434.461 291.516 434.524 282.338C434.533 281.191 434.541 280.028 434.55 278.853C434.544 277.68 434.612 276.479 434.509 275.31C434.299 272.958 433.596 270.577 432.356 268.457C431.733 267.404 430.986 266.398 430.055 265.58C429.155 264.73 428.043 264.101 426.915 263.532C424.615 262.449 422.084 261.75 419.481 261.427C416.881 261.098 414.264 261.105 411.744 261.491C410.491 261.718 409.251 261.989 408.077 262.425C406.899 262.824 405.756 263.4 404.611 263.882C400.039 265.886 395.629 267.819 391.426 269.662C383.024 273.334 375.455 276.642 369.086 279.424C362.739 282.176 357.594 284.409 354.005 285.964C352.241 286.717 350.861 287.306 349.894 287.718C349.441 287.906 349.085 288.053 348.819 288.162C348.576 288.26 348.449 288.305 348.446 288.297Z" fill="#33535F"/>
<path d="M333.564 241.01L422.192 231.523L333.564 241.01Z" fill="#33535F"/>
<path d="M422.192 231.523C422.207 231.658 402.376 233.891 377.906 236.51C353.428 239.13 333.578 241.145 333.564 241.01C333.549 240.875 353.375 238.643 377.854 236.022C402.325 233.403 422.178 231.388 422.192 231.523Z" fill="#33535F"/>
<path d="M398.856 184.69C400.394 179.801 405.755 161.81 404.551 152.327C403.589 144.747 396.811 135.045 394.779 129.864C393.824 127.425 386.208 124.911 381.665 123.569L377.146 118.226L376.767 120.835C374.569 123.616 370.171 125.613 365.977 125.24C359.265 124.642 353.792 121.896 350.096 117.847C332.667 123.164 332.72 124.352 329.371 125.686C325.062 127.403 337.96 168.745 337.96 168.745C337.96 168.745 342.581 194.714 338.234 203.469C335.784 208.399 332.953 214.017 330.866 218.602C330.866 218.602 325.073 229.659 326.314 229.373C328.92 228.768 347.03 233.16 364.028 234.051C395.48 235.702 401.492 231.038 401.492 231.038C399.849 222.991 397.092 194.752 397.098 189.276C397.099 188.371 398.584 185.556 398.856 184.69Z" fill="#5BC5F1"/>
<path d="M377.698 119.516C377.698 119.516 398.192 124.801 400.197 127.527C405.65 134.942 438.484 185.672 422.365 200.803C411.808 210.713 396.981 189.803 396.981 189.803L377.698 119.516Z" fill="#5BC5F1"/>
<path d="M420.393 179.257C420.385 179.288 419.878 179.2 418.958 179.011C417.952 178.804 416.635 178.531 415.031 178.199C411.691 177.524 407.011 176.567 401.644 175.794L401.931 175.632C401.413 176.913 400.874 178.244 400.323 179.603C398.946 182.967 397.645 186.146 396.501 188.94L396.462 188.706C398.86 191.584 400.894 194.026 402.393 195.826C403.061 196.653 403.609 197.332 404.039 197.865C404.414 198.342 404.605 198.606 404.583 198.622C404.563 198.639 406.095 199.314 403.92 197.959C403.462 197.448 402.879 196.798 402.168 196.004C400.629 194.234 398.542 191.833 396.084 189.005L395.992 188.899L396.045 188.769C397.173 185.969 398.457 182.783 399.815 179.412C400.369 178.053 400.91 176.725 401.431 175.444L401.51 175.252L401.718 175.282C407.119 176.083 411.781 177.105 415.108 177.871C416.769 178.257 418.096 178.59 419.003 178.834C419.91 179.078 420.401 179.225 420.393 179.257Z" fill="#17282F"/>
<path d="M400.684 176.87C400.647 176.865 400.704 176.274 400.837 175.207C400.983 174.055 401.175 172.535 401.408 170.698C401.849 166.898 402.46 161.599 401.911 155.789C401.393 149.966 399.394 144.966 397.674 141.542C396.813 139.821 396.034 138.468 395.491 137.535C394.947 136.603 394.639 136.09 394.674 136.068C394.689 136.059 394.786 136.175 394.955 136.405C395.125 136.635 395.369 136.978 395.668 137.432C396.266 138.336 397.099 139.668 398.011 141.379C399.826 144.779 401.913 149.837 402.439 155.74C402.995 161.623 402.316 166.948 401.78 170.744C401.504 172.647 401.233 174.179 401.042 175.237C400.846 176.295 400.72 176.876 400.684 176.87Z" fill="#17282F"/>
<path d="M336.303 207.349H339.966V173.924H336.303V207.349Z" fill="#A7A9A8"/>
<path d="M333.564 214.765L336.303 207.349C336.959 206.03 337.609 204.726 338.234 203.469C338.917 202.09 339.379 200.287 339.672 198.225L340.619 195.663L339.966 186.405C339.727 181.778 339.203 177.241 338.75 173.924L338.204 169.066L339.929 163.111L346.935 183.436L374.5 177.551L395.047 182.756L395.906 185.885C393.389 187.481 390.46 188.338 387.46 188.338C386.783 188.338 386.102 188.294 385.421 188.206L375.694 186.937L369.728 189.215L372.353 196.888L333.564 214.765Z" fill="#1E6887"/>
<path d="M395.906 185.885L395.047 182.756L398.151 183.542C398.02 183.867 397.891 184.188 397.762 184.506C397.175 185.014 396.554 185.474 395.906 185.885Z" fill="#1E6887"/>
<path d="M397.762 184.506C397.891 184.188 398.02 183.867 398.151 183.542L398.659 183.671C398.37 183.962 398.071 184.241 397.762 184.506Z" fill="#0F191D"/>
<path d="M329.861 125.484C329.861 125.484 322.233 128.391 319.934 136.864C319.934 136.864 318.28 140.196 316.931 146.135C313.657 160.55 306.595 187.626 306.312 194.804C305.801 207.782 316.117 211.465 321.686 212.601C327.254 213.738 365.955 193.7 365.955 193.7L357.913 171.832L334.275 181.62C334.275 181.62 339.673 164.945 341.228 158.126C342.782 151.308 329.861 125.484 329.861 125.484Z" fill="#5BC5F1"/>
<path d="M401.789 173.223C401.315 171.087 401.24 168.86 401.574 166.697C401.776 165.394 401.956 164.043 401.712 162.748C401.469 161.454 400.266 160.086 398.954 160.191L396.981 169.695L401.789 173.223Z" fill="#F9A78D"/>
<path d="M400.876 150.917L393.915 184.507L377.417 183.502L382.306 150.274C382.435 149.399 383.185 148.751 384.069 148.752L399.135 148.773C400.262 148.775 401.105 149.811 400.876 150.917Z" fill="#17282F"/>
<path d="M382.322 159.642C382.345 159.647 382.433 159.294 382.572 158.654C382.716 157.951 382.903 157.037 383.127 155.937C383.353 154.766 383.618 153.402 383.909 151.898C383.947 151.711 383.973 151.503 384.027 151.351C384.088 151.191 384.187 151.042 384.319 150.926C384.451 150.81 384.612 150.726 384.786 150.689C384.95 150.646 385.159 150.667 385.373 150.662C386.216 150.658 387.086 150.654 387.979 150.65C391.55 150.631 394.783 150.594 397.122 150.549C398.244 150.522 399.176 150.498 399.893 150.48C400.547 150.456 400.909 150.431 400.909 150.407C400.909 150.384 400.546 150.363 399.892 150.346C399.176 150.336 398.243 150.321 397.121 150.306C394.781 150.288 391.548 150.286 387.977 150.305C387.085 150.311 386.214 150.317 385.371 150.323C385.165 150.332 384.953 150.305 384.712 150.363C384.483 150.414 384.27 150.527 384.1 150.68C383.928 150.833 383.799 151.029 383.723 151.24C383.649 151.464 383.635 151.649 383.595 151.841C383.332 153.35 383.093 154.719 382.887 155.892C382.706 157.001 382.556 157.922 382.44 158.63C382.341 159.277 382.298 159.637 382.322 159.642Z" fill="#33535F"/>
<path d="M391.142 152.314C391.298 152.018 391.631 151.655 392.126 151.823C392.32 151.846 392.695 152.139 392.712 152.48C392.729 152.814 392.551 153.156 392.257 153.319C391.965 153.482 391.572 153.45 391.319 153.23C391.067 153.008 390.984 152.611 391.142 152.314Z" fill="#FAFAF9"/>
<path d="M391.597 162.45C391.977 162.547 400.708 167.057 400.708 167.057L405.264 171.863C405.264 171.863 406.906 174.647 405.573 178.986C404.24 183.325 402.064 184.851 397.045 186.094L387.56 184.594L382.767 180.657C381.823 179.882 381.445 178.608 381.815 177.443L381.878 177.241L381.334 176.335C380.991 175.765 381.024 175.045 381.418 174.509C381.956 173.775 382.986 173.617 383.719 174.154L389.125 178.11L392.842 178.601L393.398 177.38L387.951 174.549L381.017 169.18C380.1 168.47 379.961 167.139 380.709 166.252C381.349 165.496 382.441 165.309 383.295 165.812L389.734 169.6L396.457 172.571L395.398 169.898L387.494 164.042C387.494 164.042 386.872 161.242 391.597 162.45Z" fill="#F9A78D"/>
<path d="M390.803 157.844C390.803 157.844 388.984 156.802 385.96 158.054C382.935 159.306 379.085 161.197 379.085 161.197L373.293 162.852L373.978 161.419C373.978 161.419 379.694 161.999 379.42 157.841L375.975 157.99L373.017 156.469L367.197 162.137L365.003 170.155L358.591 173.479L363.626 187.195L372.676 182.17L384.012 181.948L388.166 178.592L388.626 174.324L392.69 170.18C392.69 170.18 393.207 168.102 391.333 167.904C389.458 167.706 384.944 172.19 384.944 172.19L380.421 172.3C380.421 172.3 379.643 171.587 380.28 171.186C380.915 170.784 394.252 164.227 394.841 162.755C395.43 161.283 396.041 160.323 394.718 159.914C393.394 159.504 391.187 160.254 391.187 160.254C391.187 160.254 391.807 158.164 390.803 157.844Z" fill="#F9A78D"/>
<path d="M379.74 166.038C379.782 166.123 382.442 164.882 385.68 163.265C388.921 161.649 391.512 160.269 391.469 160.184C391.427 160.099 388.766 161.34 385.527 162.956C382.289 164.573 379.697 165.952 379.74 166.038Z" fill="#F57F62"/>
<path d="M377.049 176.694C377.044 176.717 377.285 176.796 377.729 176.913C378.172 177.028 378.815 177.191 379.627 177.333C380.435 177.472 381.418 177.596 382.517 177.534C383.615 177.478 384.821 177.172 385.947 176.586C388.222 175.409 389.734 173.606 390.742 172.332C391.245 171.685 391.629 171.143 391.888 170.766C392.146 170.388 392.28 170.171 392.261 170.156C392.218 170.124 391.595 170.926 390.552 172.179C389.503 173.408 387.987 175.143 385.79 176.278C384.7 176.845 383.556 177.144 382.496 177.218C381.434 177.294 380.468 177.199 379.664 177.091C378.054 176.857 377.061 176.636 377.049 176.694Z" fill="#F57F62"/>
<path d="M358.551 173.479C358.546 173.469 358.684 173.388 358.958 173.236C359.255 173.074 359.66 172.854 360.179 172.572C361.284 171.985 362.874 171.142 364.914 170.059L364.859 170.127C365.444 167.944 366.17 165.234 367.01 162.097L367.02 162.057L367.05 162.027C368.775 160.335 370.73 158.415 372.848 156.337L372.942 156.245L373.061 156.305C373.978 156.774 374.988 157.289 376.023 157.818L375.927 157.797C376.994 157.748 378.169 157.693 379.371 157.637L379.584 157.628L379.583 157.827C379.578 158.444 379.566 159.114 379.217 159.694C378.902 160.276 378.377 160.731 377.79 161.026C376.594 161.602 375.255 161.715 373.915 161.636L374.135 161.514C373.926 161.954 373.69 162.449 373.453 162.948L373.193 162.64C375.015 162.116 376.976 161.552 378.983 160.975L378.945 160.99C380.766 160.155 382.635 159.298 384.541 158.423C386.348 157.504 388.675 156.651 390.883 157.633L390.837 157.613C391.106 157.697 391.33 157.928 391.431 158.171C391.536 158.415 391.573 158.667 391.577 158.906C391.585 159.392 391.509 159.854 391.381 160.323L391.069 160.024C391.738 159.811 392.415 159.653 393.132 159.581C393.836 159.532 394.621 159.477 395.339 159.976C395.513 160.113 395.658 160.335 395.696 160.568C395.733 160.798 395.698 161.004 395.657 161.196C395.561 161.575 395.416 161.91 395.278 162.243L395.073 162.739C395.048 162.812 394.993 162.92 394.922 163.029C394.855 163.121 394.786 163.187 394.717 163.265C394.436 163.536 394.139 163.751 393.839 163.969C391.423 165.602 388.901 166.911 386.443 168.232C385.205 168.875 383.98 169.513 382.767 170.143C382.161 170.455 381.556 170.765 380.957 171.074C380.682 171.227 380.281 171.395 380.245 171.516C380.172 171.628 380.341 171.942 380.541 172.125L380.375 172.062C381.906 172.026 383.414 171.991 384.898 171.956L384.74 172.024C386.119 170.702 387.521 169.467 389.087 168.479C389.477 168.232 389.893 168.019 390.334 167.849C390.768 167.688 391.322 167.614 391.786 167.787C392.268 167.925 392.685 168.343 392.824 168.82C392.968 169.297 392.961 169.764 392.861 170.231L392.85 170.287L392.806 170.331C391.395 171.763 390.041 173.139 388.732 174.467L388.79 174.345C388.628 175.813 388.471 177.235 388.319 178.613L388.31 178.694L388.248 178.744C386.79 179.915 385.404 181.026 384.085 182.086L384.036 182.125L383.976 182.126C379.586 182.193 375.779 182.25 372.639 182.298L372.697 182.281C369.804 183.859 367.537 185.094 365.969 185.949C365.212 186.354 364.624 186.667 364.202 186.892C364.016 186.989 363.866 187.065 363.745 187.126C363.644 187.177 363.589 187.2 363.586 187.195C363.584 187.189 363.631 187.156 363.729 187.095C363.845 187.026 363.988 186.94 364.168 186.832C364.583 186.593 365.159 186.26 365.902 185.832C367.458 184.951 369.704 183.681 372.573 182.058L372.601 182.043L372.633 182.042C375.774 181.967 379.579 181.875 383.969 181.771L383.861 181.809C385.175 180.742 386.553 179.621 388.004 178.441L387.934 178.571C388.079 177.192 388.227 175.77 388.382 174.301L388.389 174.231L388.44 174.18C389.743 172.846 391.091 171.466 392.496 170.027L392.441 170.127C392.612 169.371 392.434 168.407 391.645 168.208C390.898 167.943 390.074 168.421 389.324 168.865C387.82 169.819 386.418 171.055 385.068 172.355L385.001 172.421L384.91 172.424C383.426 172.461 381.919 172.499 380.387 172.539L380.287 172.54L380.22 172.475C380.075 172.334 379.963 172.195 379.866 172.013C379.777 171.84 379.695 171.581 379.806 171.326C379.918 171.077 380.146 170.961 380.284 170.886L380.735 170.648C381.336 170.339 381.94 170.027 382.547 169.714C383.757 169.083 384.981 168.444 386.216 167.801C388.663 166.484 391.195 165.165 393.555 163.568C393.842 163.36 394.133 163.148 394.372 162.917L394.522 162.745C394.548 162.702 394.584 162.655 394.618 162.555L394.826 162.055C395.077 161.43 395.455 160.644 395.03 160.356C394.567 160.019 393.827 160.005 393.18 160.066C392.514 160.133 391.847 160.287 391.225 160.484L390.793 160.622L390.915 160.185C391.028 159.774 391.1 159.326 391.092 158.92C391.087 158.507 390.953 158.151 390.689 158.074L390.681 158.072L390.643 158.054C389.758 157.636 388.641 157.599 387.644 157.787C386.624 157.956 385.682 158.42 384.728 158.86C382.827 159.727 380.964 160.576 379.147 161.404L379.125 161.414L379.11 161.419C377.101 161.989 375.138 162.547 373.314 163.065L372.842 163.199L373.054 162.756C373.293 162.259 373.53 161.765 373.741 161.325L373.804 161.192L373.96 161.202C375.214 161.283 376.526 161.169 377.602 160.649C378.134 160.382 378.581 159.991 378.854 159.497C379.157 159.009 379.168 158.413 379.178 157.854L379.389 158.042C378.186 158.092 377.011 158.14 375.943 158.184L375.891 158.186L375.846 158.162C374.813 157.628 373.807 157.106 372.892 156.632L373.105 156.601C370.971 158.664 369.002 160.569 367.266 162.248L367.307 162.178C366.432 165.306 365.676 168.008 365.068 170.184L365.055 170.231L365.013 170.252C362.953 171.295 361.348 172.107 360.23 172.671C359.701 172.933 359.287 173.137 358.984 173.287C358.702 173.422 358.556 173.487 358.551 173.479Z" fill="#F57F62"/>
<path d="M334.265 208.819C334.258 208.807 334.462 208.697 334.856 208.498C335.285 208.285 335.866 207.999 336.602 207.637C338.169 206.884 340.39 205.817 343.164 204.484C348.817 201.81 356.716 198.074 365.855 193.75L365.733 194.043C364.27 190.026 362.688 185.682 361.051 181.186C359.899 178.009 358.773 174.907 357.688 171.914L358.007 172.053C349.024 175.827 341.028 179.187 334.891 181.765L334.867 181.775L334.841 181.778C332.733 181.986 330.851 182.401 329.295 183.016C327.737 183.624 326.523 184.441 325.697 185.27C324.863 186.098 324.413 186.912 324.178 187.48C324.065 187.768 323.992 187.992 323.951 188.144C323.911 188.298 323.893 188.377 323.885 188.376C323.876 188.375 323.878 188.293 323.903 188.134C323.93 187.975 323.988 187.743 324.088 187.444C324.297 186.857 324.73 186.009 325.562 185.14C326.387 184.271 327.616 183.411 329.193 182.766C330.769 182.115 332.676 181.672 334.808 181.438L334.758 181.451C340.881 178.839 348.858 175.434 357.82 171.611L358.052 171.512L358.139 171.75C359.228 174.742 360.357 177.842 361.512 181.02C363.143 185.517 364.719 189.862 366.175 193.882L366.249 194.086L366.054 194.175C356.884 198.436 348.961 202.118 343.29 204.752C340.491 206.032 338.25 207.058 336.669 207.78C335.92 208.114 335.329 208.378 334.891 208.572C334.484 208.747 334.271 208.833 334.265 208.819Z" fill="#17282F"/>
<path d="M342.154 148.752C342.086 148.783 341.549 147.698 340.621 145.981C339.693 144.265 338.345 141.93 336.679 139.465C335.01 137.003 333.344 134.883 332.095 133.385C330.847 131.884 330.039 130.982 330.093 130.931C330.119 130.907 330.349 131.105 330.745 131.484C331.145 131.861 331.697 132.431 332.357 133.157C333.679 134.605 335.403 136.709 337.085 139.19C338.764 141.674 340.076 144.056 340.929 145.822C341.356 146.706 341.681 147.43 341.882 147.941C342.087 148.451 342.185 148.739 342.154 148.752Z" fill="#17282F"/>
<path d="M343.087 153.422C343.12 153.43 343.027 153.856 342.823 154.61C342.618 155.365 342.307 156.453 341.909 157.794C341.112 160.474 339.975 164.165 338.669 168.225C337.361 172.287 336.132 175.95 335.198 178.586C334.729 179.903 334.341 180.966 334.053 181.694C333.769 182.422 333.595 182.82 333.564 182.809C333.532 182.797 333.644 182.379 333.873 181.631C334.138 180.792 334.472 179.735 334.869 178.474C335.753 175.716 336.916 172.087 338.202 168.074C339.505 164.068 340.681 160.445 341.578 157.689C342.002 156.438 342.358 155.388 342.64 154.553C342.901 153.816 343.055 153.413 343.087 153.422Z" fill="#17282F"/>
</g>
<defs>
<clipPath id="clip0_110:386">
<rect width="510" height="400" fill="white"/>
</clipPath>
</defs>
</svg>
